<svg xmlns="http://www.w3.org/2000/svg" viewBox="0 0 69.21 63.57"><defs><style>.cls-1{fill:none;stroke:#cc181e;stroke-miterlimit:10;stroke-width:3px;}</style></defs><title>support</title><g id="Layer_2" data-name="Layer 2"><g id="Layer_1-2" data-name="Layer 1"><circle class="cls-1" cx="34.63" cy="32.57" r="5.53"/><path class="cls-1" d="M48.3,35.18l-2-1.14a12.13,12.13,0,0,0,0-2.95l2-1.14A1.43,1.43,0,0,0,49,28.3a15,15,0,0,0-3.47-6A1.44,1.44,0,0,0,43.72,22l-2,1.13a12.1,12.1,0,0,0-2.56-1.48V19.41A1.45,1.45,0,0,0,38.09,18a15.3,15.3,0,0,0-6.93,0,1.45,1.45,0,0,0-1.11,1.41v2.27a12.1,12.1,0,0,0-2.56,1.48l-2-1.13a1.44,1.44,0,0,0-1.78.26,15,15,0,0,0-3.47,6A1.43,1.43,0,0,0,21,30l2,1.14a12.13,12.13,0,0,0,0,2.95l-2,1.14a1.44,1.44,0,0,0-.67,1.66,15,15,0,0,0,3.47,6,1.47,1.47,0,0,0,1.78.26l2-1.14a11.68,11.68,0,0,0,2.56,1.48v2.27a1.45,1.45,0,0,0,1.11,1.41,15,15,0,0,0,6.93,0,1.45,1.45,0,0,0,1.11-1.41V43.45A11.68,11.68,0,0,0,41.76,42l2,1.14a1.47,1.47,0,0,0,1.78-.26,15,15,0,0,0,3.47-6,1.44,1.44,0,0,0-.67-1.66Z"/><path class="cls-1" d="M63.38,39.3V55a2.65,2.65,0,0,1-2.65,2.65H45.88"/><path class="cls-1" d="M6.45,24.51a28.75,28.75,0,0,1,27.61-23c14-.27,25.73,9.82,28.63,23"/><path class="cls-1" d="M62,24.51h5.75a0,0,0,0,1,0,0V40.57a0,0,0,0,1,0,0H62a3,3,0,0,1-3-3V27.51A3,3,0,0,1,62,24.51Z" transform="translate(126.66 65.08) rotate(180)"/><path class="cls-1" d="M4.5,24.57h5.75a0,0,0,0,1,0,0V40.62a0,0,0,0,1,0,0H4.5a3,3,0,0,1-3-3V27.57A3,3,0,0,1,4.5,24.57Z"/><circle class="cls-1" cx="42.15" cy="57.66" r="4.4"/></g></g></svg>